Coordinates
version=1
nRows=11
nColumns=36
inDegrees=yes

Units are S.I. units (second, meters, Newtons, ...)
If the header above contains a line with 'inDegrees', this indicates whether rotational values are in degrees (yes) or radians (no).

endheader
time	pelvis_tilt	pelvis_list	pelvis_rotation	pelvis_tx	pelvis_ty	pelvis_tz	hip_flexion_r	hip_adduction_r	hip_rotation_r	knee_angle_r	knee_angle_r_beta	ankle_angle_r	subtalar_angle_r	mtp_angle_r	hip_flexion_l	hip_adduction_l	hip_rotation_l	knee_angle_l	knee_angle_l_beta	ankle_angle_l	subtalar_angle_l	mtp_angle_l	lumbar_extension	lumbar_bending	lumbar_rotation	arm_flex_r	arm_add_r	arm_rot_r	elbow_flex_r	pro_sup_r	arm_flex_l	arm_add_l	arm_rot_l	elbow_flex_l	pro_sup_l
      2.38333330	     -3.17618143	     -0.54049913	      5.06428189	      0.68601662	      0.90641941	      0.01925025	     36.57036255	    -11.25173554	     -6.12768038	     41.42887615	      0.72307029	      0.61230511	    -17.54528164	     -7.49999987	     37.60765344	    -10.88632689	     -8.33902915	     40.90519505	      0.71393033	      4.99002827	     -6.51084977	     -7.49999987	    -27.02189228	     -1.10745388	     -3.31823422	     -2.54634563	    -28.30407715	     21.09019369	    110.85401058	     92.61095951	    -30.22956356	    -12.74604354	    -17.96139703	    132.00526862	    100.05669505
      2.40000000	     -2.89739577	      0.02325959	      4.99236114	      0.69262458	      0.86976745	      0.01905341	     43.96519354	    -12.40806665	     -3.56647663	     56.17449589	      0.98042991	     10.21565039	    -18.77024164	     -7.49999987	     44.30813287	    -11.70839534	     -7.06602437	     54.40722787	      0.94958526	     14.02351618	     -7.21444638	     -7.49999987	    -30.06309229	     -1.02597248	     -3.96688245	      6.32361306	    -25.03003696	     24.06240741	    108.58533749	     93.64540109	    -21.36975653	    -13.44299066	    -12.86049372	    129.35672963	     98.54090340
      2.41666670	     -2.80062358	      0.60783060	      5.72859956	      0.69392730	      0.85407131	      0.01841302	     48.68451494	    -13.46548491	     -2.14444786	     65.37430370	      1.14099685	     16.11079280	    -18.81583322	     -7.49999987	     49.20018216	    -11.78457211	     -5.84556119	     63.79416732	      1.11341826	     19.39043472	     -6.48883355	     -7.49999987	    -33.92535007	     -0.78571145	     -4.23830154	     15.25670257	    -21.04070328	     23.72501089	    106.49798456	     93.22148032	     -9.47025750	    -14.94320864	     -8.43946324	    125.89271382	     97.23351558
      2.43333330	     -2.42792449	      1.13130870	      6.19627515	      0.69023214	      0.82877783	      0.02297770	     52.51109442	    -13.80505053	     -0.89189158	     72.38688077	      1.26338940	     19.67536160	    -18.77804620	     -7.49999987	     52.90993730	    -12.05290227	     -5.06995775	     70.65956448	      1.23324205	     22.62885553	     -5.05515321	     -7.49999987	    -37.98259764	     -0.85680669	     -4.46072437	     25.03899538	    -17.86377466	     24.18233508	    105.01188309	     89.91826540	      3.57953748	    -16.40467584	     -2.28072703	    124.04729218	     93.32934046
      2.45000000	     -2.47138568	      1.50810879	      5.74933789	      0.69518615	      0.81342711	      0.02066951	     55.41530962	    -13.45454599	      0.61977665	     76.75570638	      1.33963980	     21.93133129	    -18.14483270	     -7.49999987	     55.12145508	    -12.43764621	     -4.80035859	     74.90359648	      1.30731438	     24.84045456	     -4.11437494	     -7.49999987	    -41.81393473	     -0.89247709	     -3.66258284	     34.50996754	    -15.51886930	     24.65319642	    102.69749328	     90.36703464	     16.26037506	    -15.89290634	      3.46884226	    120.94017619	     92.64797249
      2.46666670	     -3.05203629	      2.09804260	      4.97385968	      0.69469982	      0.79497193	      0.02500192	     58.29860311	    -12.74869472	      2.23206111	     79.81297107	      1.39299913	     23.66392552	    -17.87172245	     -7.49999987	     56.85393409	    -13.26470432	     -5.54020290	     77.19598288	      1.34732407	     26.08428487	     -3.05894633	     -7.49999987	    -45.03207025	     -2.17061588	     -0.65498467	     40.79474044	    -14.97161460	     21.60191266	    106.23727880	     91.66077171	     31.15066643	    -14.16328612	     13.20953127	    118.47149589	     88.96744982
      2.48333330	     -4.82806148	      2.19358337	      4.28628089	      0.68856946	      0.77071256	      0.02901544	     62.55450258	    -11.88605073	      3.39455277	     82.52089385	      1.44026130	     24.92502607	    -17.86296826	     -7.49999987	     60.69569598	    -14.18870381	     -5.43963305	     79.90514292	      1.39460783	     27.39754971	     -2.23444516	     -7.49999987	    -46.94932880	     -2.79475260	     -0.63263131	     49.08847952	    -12.27067705	     23.90652986	    107.96856017	     92.08150002	     41.25273406	    -13.49393079	     17.04944433	    119.86863673	     87.88022460
      2.50000000	     -6.83767760	      2.18047974	      3.85192088	      0.69084367	      0.75856607	      0.03097128	     66.24073327	    -10.93888088	      4.48402009	     84.53647521	      1.47543983	     25.72350234	    -17.96418628	     -7.49999987	     63.97575771	    -15.15779583	     -5.60508918	     81.58402156	      1.42390979	     28.29933821	     -1.08588193	     -7.49999987	    -48.93256073	     -3.65562467	     -0.42142366	     57.23070926	    -10.18612971	     25.58519536	    110.54778424	     98.18353908	     50.30991334	    -12.26305508	     19.13339476	    121.81029790	     89.25258953
      2.51666670	     -8.70401906	      1.68555504	      3.72029655	      0.71043988	      0.74326210	      0.05227561	     68.86481396	     -9.26373024	      4.49381622	     86.86702531	      1.51611560	     27.05276286	    -18.66487154	     -7.49999987	     66.82794506	    -17.52430936	     -5.09287803	     83.35918509	      1.45489224	     28.73240786	      0.53058965	     -7.49999987	    -50.23137927	     -4.58213172	     -0.41284809	     62.47969333	     -7.71808697	     28.36226338	    114.29708590	    100.45225140	     58.47940612	    -12.50009129	     21.13690698	    125.36547201	     90.98753798
      2.53333330	    -11.09070503	      1.61518551	      3.60725269	      0.69594441	      0.73006279	      0.05470306	     72.58602667	     -8.12751070	      4.88059497	     88.44512744	      1.54365868	     27.05558132	    -19.41314846	     -7.49999987	     70.84909932	    -18.89322410	     -5.15496943	     85.16252341	      1.48636643	     28.90182809	      1.00627490	     -7.49999987	    -50.98985256	     -5.57848297	     -0.42564474	     68.95467576	     -6.08094771	     29.71167900	    115.11301087	    100.87771744	     67.18483563	    -11.25645041	     21.12445063	    126.79309714	     91.38893645
      2.55000000	    -13.60372299	      1.49695206	      3.96222832	      0.67822185	      0.72154240	      0.04746631	     76.93964474	     -7.87401811	      5.57364431	     89.25905906	      1.55786447	     25.81489385	    -20.34194210	     -7.49999987	     75.23991698	    -18.99828737	     -5.22337112	     85.89576758	      1.49916396	     28.03070302	      0.19530731	     -7.49999987	    -52.43116114	     -5.92031660	     -0.99053669	     77.76939408	     -5.82658688	     31.22745752	    116.18030007	    101.50848515	     75.59162669	     -9.97186146	     21.42400623	    126.95964239	     92.23447751
